CalSansText-Light.ufo
<glyph name="exclam" format="2">
  <advance width="219.0"/>
  <unicode hex="0021"/>
  <outline>
    <contour>
      <point x="81.0" y="143.0" type="line"/>
      <point x="137.0" y="143.0" type="line"/>
      <point x="154.0" y="527.0" type="line"/>
      <point x="154.0" y="700.0" type="line"/>
      <point x="64.0" y="700.0" type="line"/>
      <point x="64.0" y="527.0" type="line"/>
    </contour>
    <component base="period"/>
  </outline>
</glyph>
<glyph name="numbersign" format="2">
  <advance width="757.0"/>
  <unicode hex="0023"/>
  <outline>
    <contour>
      <point x="378.0" y="0.0" type="line"/>
      <point x="446.0" y="0.0" type="line"/>
      <point x="505.0" y="235.0" type="line"/>
      <point x="511.0" y="257.0" type="line"/>
      <point x="570.0" y="490.0" type="line"/>
      <point x="576.0" y="515.0" type="line"/>
      <point x="630.0" y="730.0" type="line"/>
      <point x="560.0" y="730.0" type="line"/>
      <point x="507.0" y="515.0" type="line"/>
      <point x="504.0" y="492.0" type="line"/>
      <point x="445.0" y="257.0" type="line"/>
      <point x="437.0" y="236.0" type="line"/>
    </contour>
    <contour>
      <point x="118.0" y="0.0" type="line"/>
      <point x="183.0" y="0.0" type="line"/>
      <point x="243.0" y="237.0" type="line"/>
      <point x="245.0" y="258.0" type="line"/>
      <point x="304.0" y="492.0" type="line"/>
      <point x="313.0" y="514.0" type="line"/>
      <point x="367.0" y="730.0" type="line"/>
      <point x="300.0" y="730.0" type="line"/>
      <point x="246.0" y="515.0" type="line"/>
      <point x="240.0" y="492.0" type="line"/>
      <point x="183.0" y="264.0" type="line"/>
      <point x="176.0" y="235.0" type="line"/>
    </contour>
    <contour>
      <point x="65.0" y="212.0" type="line"/>
      <point x="677.0" y="212.0" type="line"/>
      <point x="677.0" y="277.0" type="line"/>
      <point x="65.0" y="277.0" type="line"/>
    </contour>
    <contour>
      <point x="80.0" y="469.0" type="line"/>
      <point x="692.0" y="469.0" type="line"/>
      <point x="692.0" y="534.0" type="line"/>
      <point x="80.0" y="534.0" type="line"/>
    </contour>
  </outline>
</glyph>
<glyph name="parenleft" format="2">
  <advance width="324.0"/>
  <unicode hex="0028"/>
  <outline>
    <contour>
      <point x="217.0" y="-214.0" type="curve"/>
      <point x="277.0" y="-180.0" type="line"/>
      <point x="107.0" y="71.0"/>
      <point x="101.0" y="562.0"/>
      <point x="277.0" y="770.0" type="curve"/>
      <point x="217.0" y="803.0" type="line"/>
      <point x="31.0" y="545.0"/>
      <point x="30.0" y="65.0"/>
    </contour>
  </outline>
</glyph>
<glyph name="plus" format="2">
  <advance width="596.0"/>
  <unicode hex="002B"/>
  <outline>
    <contour>
      <point x="82.0" y="280.0" type="line"/>
      <point x="514.0" y="280.0" type="line"/>
      <point x="514.0" y="352.0" type="line"/>
      <point x="82.0" y="352.0" type="line"/>
    </contour>
    <contour>
      <point x="257.0" y="94.0" type="line"/>
      <point x="339.0" y="94.0" type="line"/>
      <point x="339.0" y="536.0" type="line"/>
      <point x="257.0" y="536.0" type="line"/>
    </contour>
  </outline>
</glyph>
<glyph name="comma" format="2">
  <advance width="223.0"/>
  <unicode hex="002C"/>
  <outline>
    <contour>
      <point x="73.0" y="-173.0" type="line"/>
      <point x="139.0" y="-141.0"/>
      <point x="184.0" y="-91.0"/>
      <point x="184.0" y="-14.0" type="curve" smooth="yes"/>
      <point x="184.0" y="56.0"/>
      <point x="151.0" y="97.0"/>
      <point x="102.0" y="97.0" type="curve" smooth="yes"/>
      <point x="69.0" y="97.0"/>
      <point x="44.0" y="79.0"/>
      <point x="44.0" y="47.0" type="curve" smooth="yes"/>
      <point x="44.0" y="17.0"/>
      <point x="64.0" y="-4.0"/>
      <point x="90.0" y="-4.0" type="curve" smooth="yes"/>
      <point x="105.0" y="-4.0"/>
      <point x="113.0" y="0.0"/>
      <point x="122.0" y="11.0" type="curve"/>
      <point x="125.0" y="11.0" type="line"/>
      <point x="127.0" y="5.0"/>
      <point x="128.0" y="-2.0"/>
      <point x="128.0" y="-12.0" type="curve" smooth="yes"/>
      <point x="128.0" y="-85.0"/>
      <point x="85.0" y="-101.0"/>
      <point x="47.0" y="-124.0" type="curve"/>
    </contour>
  </outline>
</glyph>
<glyph name="hyphen" format="2">
  <advance width="390.0"/>
  <unicode hex="002D"/>
  <outline>
    <contour>
      <point x="52.0" y="237.0" type="line"/>
      <point x="338.0" y="237.0" type="line"/>
      <point x="338.0" y="315.0" type="line"/>
      <point x="52.0" y="315.0" type="line"/>
    </contour>
  </outline>
</glyph>
<glyph name="period" format="2">
  <advance width="219.0"/>
  <unicode hex="002E"/>
  <outline>
    <contour>
      <point x="110.0" y="-13.0" type="curve" smooth="yes"/>
      <point x="142.0" y="-13.0"/>
      <point x="165.0" y="12.0"/>
      <point x="165.0" y="42.0" type="curve" smooth="yes"/>
      <point x="165.0" y="71.0"/>
      <point x="142.0" y="95.0"/>
      <point x="110.0" y="95.0" type="curve" smooth="yes"/>
      <point x="77.0" y="95.0"/>
      <point x="54.0" y="71.0"/>
      <point x="54.0" y="42.0" type="curve" smooth="yes"/>
      <point x="54.0" y="12.0"/>
      <point x="77.0" y="-13.0"/>
    </contour>
  </outline>
</glyph>
<glyph name="zero" format="2">
  <advance width="594.0"/>
  <unicode hex="0030"/>
  <outline>
    <contour>
      <point x="297.0" y="-13.0" type="curve" smooth="yes"/>
      <point x="437.0" y="-12.0"/>
      <point x="539.0" y="92.0"/>
      <point x="539.0" y="239.0" type="curve" smooth="yes"/>
      <point x="539.0" y="471.0" type="line" smooth="yes"/>
      <point x="539.0" y="606.0"/>
      <point x="437.0" y="712.0"/>
      <point x="297.0" y="711.0" type="curve" smooth="yes"/>
      <point x="157.0" y="710.0"/>
      <point x="55.0" y="606.0"/>
      <point x="55.0" y="466.0" type="curve" smooth="yes"/>
      <point x="55.0" y="232.0" type="line" smooth="yes"/>
      <point x="55.0" y="92.0"/>
      <point x="157.0" y="-14.0"/>
    </contour>
    <contour>
      <point x="297.0" y="64.0" type="curve" smooth="yes"/>
      <point x="208.0" y="64.0"/>
      <point x="143.0" y="132.0"/>
      <point x="143.0" y="244.0" type="curve" smooth="yes"/>
      <point x="143.0" y="465.0" type="line" smooth="yes"/>
      <point x="143.0" y="569.0"/>
      <point x="208.0" y="634.0"/>
      <point x="297.0" y="634.0" type="curve" smooth="yes"/>
      <point x="386.0" y="634.0"/>
      <point x="451.0" y="566.0"/>
      <point x="451.0" y="460.0" type="curve" smooth="yes"/>
      <point x="451.0" y="238.0" type="line" smooth="yes"/>
      <point x="451.0" y="129.0"/>
      <point x="386.0" y="64.0"/>
    </contour>
  </outline>
</glyph>
<glyph name="C" format="2">
  <advance width="682.0"/>
  <unicode hex="0043"/>
  <anchor x="399.0" y="0.0" name="bottom"/>
  <anchor x="502.0" y="0.0" name="ogonek"/>
  <anchor x="399.0" y="700.0" name="top"/>
  <outline>
    <contour>
      <point x="399.0" y="-13.0" type="curve" smooth="yes"/>
      <point x="513.0" y="-13.0"/>
      <point x="601.0" y="29.0"/>
      <point x="661.0" y="102.0" type="curve"/>
      <point x="601.0" y="151.0" type="line"/>
      <point x="550.0" y="93.0"/>
      <point x="492.0" y="63.0"/>
      <point x="402.0" y="63.0" type="curve" smooth="yes"/>
      <point x="251.0" y="63.0"/>
      <point x="128.0" y="182.0"/>
      <point x="128.0" y="349.0" type="curve" smooth="yes"/>
      <point x="128.0" y="515.0"/>
      <point x="241.0" y="637.0"/>
      <point x="399.0" y="637.0" type="curve" smooth="yes"/>
      <point x="475.0" y="637.0"/>
      <point x="543.0" y="615.0"/>
      <point x="594.0" y="551.0" type="curve"/>
      <point x="655.0" y="603.0" type="line"/>
      <point x="592.0" y="678.0"/>
      <point x="506.0" y="713.0"/>
      <point x="399.0" y="713.0" type="curve" smooth="yes"/>
      <point x="195.0" y="713.0"/>
      <point x="41.0" y="553.0"/>
      <point x="41.0" y="349.0" type="curve" smooth="yes"/>
      <point x="41.0" y="145.0"/>
      <point x="197.0" y="-13.0"/>
    </contour>
  </outline>
</glyph>
<glyph name="D" format="2">
  <advance width="712.0"/>
  <unicode hex="0044"/>
  <anchor x="319.0" y="0.0" name="bottom"/>
  <anchor x="128.0" y="349.0" name="center"/>
  <anchor x="337.0" y="700.0" name="top"/>
  <outline>
    <contour>
      <point x="82.0" y="0.0" type="line"/>
      <point x="292.0" y="0.0" type="line" smooth="yes"/>
      <point x="513.0" y="0.0"/>
      <point x="671.0" y="130.0"/>
      <point x="671.0" y="349.0" type="curve" smooth="yes"/>
      <point x="671.0" y="570.0"/>
      <point x="513.0" y="700.0"/>
      <point x="292.0" y="700.0" type="curve" smooth="yes"/>
      <point x="82.0" y="700.0" type="line"/>
    </contour>
    <contour>
      <point x="164.0" y="76.0" type="line"/>
      <point x="164.0" y="624.0" type="line"/>
      <point x="295.0" y="624.0" type="line" smooth="yes"/>
      <point x="466.0" y="624.0"/>
      <point x="587.0" y="525.0"/>
      <point x="587.0" y="349.0" type="curve" smooth="yes"/>
      <point x="587.0" y="174.0"/>
      <point x="466.0" y="76.0"/>
      <point x="295.0" y="76.0" type="curve" smooth="yes"/>
    </contour>
  </outline>
</glyph>
<glyph name="E" format="2">
  <advance width="550.0"/>
  <unicode hex="0045"/>
  <anchor x="300.0" y="0.0" name="bottom"/>
  <anchor x="389.0" y="0.0" name="ogonek"/>
  <anchor x="290.0" y="700.0" name="top"/>
  <outline>
    <contour>
      <point x="82.0" y="0.0" type="line"/>
      <point x="479.0" y="0.0" type="line"/>
      <point x="479.0" y="76.0" type="line"/>
      <point x="164.0" y="76.0" type="line"/>
      <point x="164.0" y="318.0" type="line"/>
      <point x="472.0" y="318.0" type="line"/>
      <point x="472.0" y="394.0" type="line"/>
      <point x="164.0" y="394.0" type="line"/>
      <point x="164.0" y="624.0" type="line"/>
      <point x="477.0" y="624.0" type="line"/>
      <point x="477.0" y="700.0" type="line"/>
      <point x="82.0" y="700.0" type="line"/>
    </contour>
  </outline>
</glyph>
<glyph name="F" format="2">
  <advance width="547.0"/>
  <unicode hex="0046"/>
  <anchor x="124.0" y="0.0" name="bottom"/>
  <anchor x="104.0" y="0.0" name="ogonek"/>
  <anchor x="295.0" y="700.0" name="top"/>
  <outline>
    <contour>
      <point x="82.0" y="0.0" type="line"/>
      <point x="166.0" y="0.0" type="line"/>
      <point x="166.0" y="311.0" type="line"/>
      <point x="475.0" y="311.0" type="line"/>
      <point x="475.0" y="387.0" type="line"/>
      <point x="166.0" y="387.0" type="line"/>
      <point x="166.0" y="624.0" type="line"/>
      <point x="480.0" y="624.0" type="line"/>
      <point x="480.0" y="700.0" type="line"/>
      <point x="82.0" y="700.0" type="line"/>
    </contour>
  </outline>
</glyph>
<glyph name="O" format="2">
  <advance width="778.0"/>
  <unicode hex="004F"/>
  <anchor x="390.0" y="0.0" name="bottom"/>
  <anchor x="383.0" y="338.0" name="center"/>
  <anchor x="486.0" y="0.0" name="ogonek"/>
  <anchor x="390.0" y="700.0" name="top"/>
  <anchor x="595.0" y="700.0" name="topright"/>
  <outline>
    <contour>
      <point x="389.0" y="-13.0" type="curve" smooth="yes"/>
      <point x="595.0" y="-13.0"/>
      <point x="737.0" y="150.0"/>
      <point x="737.0" y="350.0" type="curve" smooth="yes"/>
      <point x="737.0" y="552.0"/>
      <point x="595.0" y="713.0"/>
      <point x="389.0" y="713.0" type="curve" smooth="yes"/>
      <point x="183.0" y="713.0"/>
      <point x="41.0" y="550.0"/>
      <point x="41.0" y="349.0" type="curve" smooth="yes"/>
      <point x="41.0" y="148.0"/>
      <point x="183.0" y="-13.0"/>
    </contour>
    <contour>
      <point x="389.0" y="63.0" type="curve" smooth="yes"/>
      <point x="231.0" y="63.0"/>
      <point x="125.0" y="178.0"/>
      <point x="125.0" y="349.0" type="curve" smooth="yes"/>
      <point x="125.0" y="520.0"/>
      <point x="231.0" y="637.0"/>
      <point x="389.0" y="637.0" type="curve" smooth="yes"/>
      <point x="548.0" y="637.0"/>
      <point x="653.0" y="521.0"/>
      <point x="653.0" y="350.0" type="curve" smooth="yes"/>
      <point x="653.0" y="179.0"/>
      <point x="548.0" y="63.0"/>
    </contour>
  </outline>
</glyph>
<glyph name="Q" format="2">
  <advance width="778.0"/>
  <unicode hex="0051"/>
  <anchor x="390.0" y="0.0" name="bottom"/>
  <anchor x="383.0" y="338.0" name="center"/>
  <anchor x="486.0" y="0.0" name="ogonek"/>
  <anchor x="390.0" y="700.0" name="top"/>
  <anchor x="595.0" y="700.0" name="topright"/>
  <outline>
    <contour>
      <point x="619.0" y="-58.0" type="line"/>
      <point x="706.0" y="-58.0" type="line"/>
      <point x="598.0" y="105.0" type="line"/>
      <point x="592.0" y="127.0" type="line"/>
      <point x="503.0" y="257.0" type="line"/>
      <point x="416.0" y="257.0" type="line"/>
      <point x="537.0" y="76.0" type="line"/>
      <point x="542.0" y="56.0" type="line"/>
    </contour>
    <component base="O"/>
  </outline>
</glyph>
<glyph name="W" format="2">
  <advance width="1034.0"/>
  <unicode hex="0057"/>
  <anchor x="517.0" y="0.0" name="bottom"/>
  <anchor x="517.0" y="700.0" name="top"/>
  <outline>
    <contour>
      <point x="248.0" y="0.0" type="line"/>
      <point x="330.0" y="0.0" type="line"/>
      <point x="488.0" y="488.0" type="line" smooth="yes"/>
      <point x="506.0" y="541.0"/>
      <point x="510.0" y="564.0"/>
      <point x="515.0" y="591.0" type="curve"/>
      <point x="519.0" y="591.0" type="line"/>
      <point x="524.0" y="564.0"/>
      <point x="527.0" y="542.0"/>
      <point x="545.0" y="488.0" type="curve" smooth="yes"/>
      <point x="701.0" y="0.0" type="line"/>
      <point x="783.0" y="0.0" type="line"/>
      <point x="1009.0" y="700.0" type="line"/>
      <point x="919.0" y="700.0" type="line"/>
      <point x="769.0" y="213.0" type="line" smooth="yes"/>
      <point x="752.0" y="160.0"/>
      <point x="749.0" y="135.0"/>
      <point x="744.0" y="109.0" type="curve"/>
      <point x="740.0" y="109.0" type="line"/>
      <point x="735.0" y="135.0"/>
      <point x="732.0" y="159.0"/>
      <point x="714.0" y="213.0" type="curve" smooth="yes"/>
      <point x="563.0" y="700.0" type="line"/>
      <point x="478.0" y="700.0" type="line"/>
      <point x="320.0" y="213.0" type="line" smooth="yes"/>
      <point x="302.0" y="160.0"/>
      <point x="299.0" y="135.0"/>
      <point x="294.0" y="109.0" type="curve"/>
      <point x="290.0" y="109.0" type="line"/>
      <point x="285.0" y="135.0"/>
      <point x="281.0" y="159.0"/>
      <point x="264.0" y="213.0" type="curve" smooth="yes"/>
      <point x="119.0" y="700.0" type="line"/>
      <point x="25.0" y="700.0" type="line"/>
    </contour>
  </outline>
</glyph>
<glyph name="Y" format="2">
  <advance width="559.0"/>
  <unicode hex="0059"/>
  <anchor x="281.0" y="0.0" name="bottom"/>
  <anchor x="282.0" y="700.0" name="top"/>
  <anchor x="20.0" y="700.0" name="topleft"/>
  <outline>
    <contour>
      <point x="240.0" y="0.0" type="line"/>
      <point x="322.0" y="0.0" type="line"/>
      <point x="322.0" y="289.0" type="line"/>
      <point x="553.0" y="700.0" type="line"/>
      <point x="457.0" y="700.0" type="line"/>
      <point x="348.0" y="493.0" type="line" smooth="yes"/>
      <point x="306.0" y="413.0"/>
      <point x="288.0" y="366.0"/>
      <point x="284.0" y="354.0" type="curve"/>
      <point x="281.0" y="354.0" type="line"/>
      <point x="278.0" y="366.0"/>
      <point x="257.0" y="409.0"/>
      <point x="213.0" y="492.0" type="curve" smooth="yes"/>
      <point x="102.0" y="700.0" type="line"/>
      <point x="6.0" y="700.0" type="line"/>
      <point x="240.0" y="290.0" type="line"/>
    </contour>
  </outline>
</glyph>
<glyph name="Z" format="2">
  <advance width="639.0"/>
  <unicode hex="005A"/>
  <anchor x="320.0" y="0.0" name="bottom"/>
  <anchor x="320.0" y="350.0" name="center"/>
  <anchor x="320.0" y="700.0" name="top"/>
  <outline>
    <contour>
      <point x="42.0" y="0.0" type="line"/>
      <point x="593.0" y="0.0" type="line"/>
      <point x="593.0" y="76.0" type="line"/>
      <point x="168.0" y="76.0" type="line"/>
      <point x="168.0" y="79.0" type="line"/>
      <point x="181.0" y="88.0"/>
      <point x="194.0" y="103.0"/>
      <point x="221.0" y="141.0" type="curve" smooth="yes"/>
      <point x="593.0" y="685.0" type="line"/>
      <point x="593.0" y="700.0" type="line"/>
      <point x="61.0" y="700.0" type="line"/>
      <point x="61.0" y="624.0" type="line"/>
      <point x="460.0" y="624.0" type="line"/>
      <point x="460.0" y="621.0" type="line"/>
      <point x="447.0" y="612.0"/>
      <point x="434.0" y="597.0"/>
      <point x="409.0" y="560.0" type="curve" smooth="yes"/>
      <point x="42.0" y="15.0" type="line"/>
    </contour>
  </outline>
</glyph>
<glyph name="e" format="2">
  <advance width="557.0"/>
  <unicode hex="0065"/>
  <anchor x="286.0" y="0.0" name="bottom"/>
  <anchor x="311.0" y="4.0" name="ogonek"/>
  <anchor x="286.0" y="490.0" name="top"/>
  <outline>
    <contour>
      <point x="286.0" y="-13.0" type="curve" smooth="yes"/>
      <point x="374.0" y="-13.0"/>
      <point x="447.0" y="19.0"/>
      <point x="493.0" y="80.0" type="curve"/>
      <point x="436.0" y="129.0" type="line"/>
      <point x="401.0" y="81.0"/>
      <point x="355.0" y="61.0"/>
      <point x="287.0" y="61.0" type="curve" smooth="yes"/>
      <point x="193.0" y="61.0"/>
      <point x="118.0" y="129.0"/>
      <point x="116.0" y="233.0" type="curve"/>
      <point x="116.0" y="245.0" type="line"/>
      <point x="115.0" y="362.0"/>
      <point x="182.0" y="429.0"/>
      <point x="283.0" y="429.0" type="curve" smooth="yes"/>
      <point x="389.0" y="429.0"/>
      <point x="445.0" y="352.0"/>
      <point x="441.0" y="245.0" type="curve"/>
      <point x="469.0" y="284.0" type="line"/>
      <point x="75.0" y="284.0" type="line"/>
      <point x="75.0" y="214.0" type="line"/>
      <point x="519.0" y="214.0" type="line"/>
      <point x="521.0" y="223.0"/>
      <point x="521.0" y="236.0"/>
      <point x="521.0" y="246.0" type="curve" smooth="yes"/>
      <point x="521.0" y="397.0"/>
      <point x="432.0" y="503.0"/>
      <point x="285.0" y="503.0" type="curve" smooth="yes"/>
      <point x="139.0" y="503.0"/>
      <point x="36.0" y="392.0"/>
      <point x="36.0" y="246.0" type="curve" smooth="yes"/>
      <point x="36.0" y="96.0"/>
      <point x="137.0" y="-13.0"/>
    </contour>
  </outline>
</glyph>
<glyph name="g" format="2">
  <advance width="625.0"/>
  <unicode hex="0067"/>
  <anchor x="283.0" y="-220.0" name="bottom"/>
  <anchor x="374.0" y="-220.0" name="ogonek"/>
  <anchor x="292.0" y="490.0" name="top"/>
  <outline>
    <contour>
      <point x="283.0" y="-233.0" type="curve" smooth="yes"/>
      <point x="442.0" y="-230.0"/>
      <point x="553.0" y="-137.0"/>
      <point x="553.0" y="29.0" type="curve" smooth="yes"/>
      <point x="553.0" y="490.0" type="line"/>
      <point x="477.0" y="490.0" type="line"/>
      <point x="477.0" y="398.0" type="line"/>
      <point x="471.0" y="398.0" type="line"/>
      <point x="438.0" y="458.0"/>
      <point x="379.0" y="503.0"/>
      <point x="289.0" y="503.0" type="curve" smooth="yes"/>
      <point x="146.0" y="503.0"/>
      <point x="36.0" y="393.0"/>
      <point x="36.0" y="246.0" type="curve" smooth="yes"/>
      <point x="36.0" y="99.0"/>
      <point x="146.0" y="-9.0"/>
      <point x="289.0" y="-9.0" type="curve" smooth="yes"/>
      <point x="376.0" y="-9.0"/>
      <point x="437.0" y="37.0"/>
      <point x="467.0" y="97.0" type="curve"/>
      <point x="473.0" y="97.0" type="line"/>
      <point x="473.0" y="27.0" type="line" smooth="yes"/>
      <point x="474.0" y="-84.0"/>
      <point x="395.0" y="-158.0"/>
      <point x="288.0" y="-158.0" type="curve" smooth="yes"/>
      <point x="211.0" y="-158.0"/>
      <point x="158.0" y="-136.0"/>
      <point x="105.0" y="-78.0" type="curve"/>
      <point x="45.0" y="-128.0" type="line"/>
      <point x="111.0" y="-210.0"/>
      <point x="198.0" y="-234.0"/>
    </contour>
    <contour>
      <point x="297.0" y="65.0" type="curve" smooth="yes"/>
      <point x="185.0" y="65.0"/>
      <point x="116.0" y="147.0"/>
      <point x="116.0" y="247.0" type="curve" smooth="yes"/>
      <point x="116.0" y="349.0"/>
      <point x="185.0" y="429.0"/>
      <point x="297.0" y="429.0" type="curve" smooth="yes"/>
      <point x="411.0" y="429.0"/>
      <point x="472.0" y="346.0"/>
      <point x="472.0" y="246.0" type="curve" smooth="yes"/>
      <point x="472.0" y="146.0"/>
      <point x="411.0" y="65.0"/>
    </contour>
  </outline>
</glyph>
<glyph name="h" format="2">
  <advance width="559.0"/>
  <unicode hex="0068"/>
  <anchor x="112.0" y="586.0" name="bar"/>
  <anchor x="290.0" y="0.0" name="bottom"/>
  <anchor x="412.0" y="0.0" name="ogonek"/>
  <anchor x="112.0" y="700.0" name="top"/>
  <outline>
    <contour>
      <point x="72.0" y="0.0" type="line"/>
      <point x="152.0" y="0.0" type="line"/>
      <point x="152.0" y="296.0" type="line" smooth="yes"/>
      <point x="152.0" y="378.0"/>
      <point x="208.0" y="429.0"/>
      <point x="296.0" y="429.0" type="curve" smooth="yes"/>
      <point x="369.0" y="429.0"/>
      <point x="412.0" y="378.0"/>
      <point x="412.0" y="296.0" type="curve" smooth="yes"/>
      <point x="412.0" y="0.0" type="line"/>
      <point x="492.0" y="0.0" type="line"/>
      <point x="492.0" y="314.0" type="line" smooth="yes"/>
      <point x="492.0" y="431.0"/>
      <point x="418.0" y="503.0"/>
      <point x="308.0" y="503.0" type="curve" smooth="yes"/>
      <point x="230.0" y="503.0"/>
      <point x="185.0" y="463.0"/>
      <point x="158.0" y="416.0" type="curve"/>
      <point x="152.0" y="416.0" type="line"/>
      <point x="152.0" y="700.0" type="line"/>
      <point x="72.0" y="700.0" type="line"/>
    </contour>
  </outline>
</glyph>
<glyph name="m" format="2">
  <advance width="878.0"/>
  <unicode hex="006D"/>
  <anchor x="437.0" y="0.0" name="bottom"/>
  <anchor x="731.0" y="0.0" name="ogonek"/>
  <anchor x="445.0" y="490.0" name="top"/>
  <outline>
    <contour>
      <point x="72.0" y="0.0" type="line"/>
      <point x="152.0" y="0.0" type="line"/>
      <point x="152.0" y="307.0" type="line" smooth="yes"/>
      <point x="152.0" y="381.0"/>
      <point x="201.0" y="429.0"/>
      <point x="278.0" y="429.0" type="curve" smooth="yes"/>
      <point x="364.0" y="429.0"/>
      <point x="403.0" y="381.0"/>
      <point x="403.0" y="307.0" type="curve" smooth="yes"/>
      <point x="403.0" y="0.0" type="line"/>
      <point x="483.0" y="0.0" type="line"/>
      <point x="483.0" y="314.0" type="line" smooth="yes"/>
      <point x="483.0" y="384.0"/>
      <point x="531.0" y="429.0"/>
      <point x="607.0" y="429.0" type="curve" smooth="yes"/>
      <point x="683.0" y="429.0"/>
      <point x="731.0" y="381.0"/>
      <point x="731.0" y="307.0" type="curve" smooth="yes"/>
      <point x="731.0" y="0.0" type="line"/>
      <point x="811.0" y="0.0" type="line"/>
      <point x="811.0" y="326.0" type="line" smooth="yes"/>
      <point x="811.0" y="427.0"/>
      <point x="730.0" y="503.0"/>
      <point x="621.0" y="503.0" type="curve" smooth="yes"/>
      <point x="543.0" y="503.0"/>
      <point x="479.0" y="469.0"/>
      <point x="458.0" y="416.0" type="curve"/>
      <point x="452.0" y="416.0" type="line"/>
      <point x="429.0" y="469.0"/>
      <point x="372.0" y="503.0"/>
      <point x="300.0" y="503.0" type="curve" smooth="yes"/>
      <point x="237.0" y="503.0"/>
      <point x="180.0" y="473.0"/>
      <point x="154.0" y="424.0" type="curve"/>
      <point x="148.0" y="424.0" type="line"/>
      <point x="148.0" y="490.0" type="line"/>
      <point x="72.0" y="490.0" type="line"/>
    </contour>
  </outline>
</glyph>
<glyph name="n" format="2">
  <advance width="559.0"/>
  <unicode hex="006E"/>
  <anchor x="288.0" y="0.0" name="bottom"/>
  <anchor x="412.0" y="0.0" name="ogonek"/>
  <anchor x="299.0" y="490.0" name="top"/>
  <outline>
    <contour>
      <point x="72.0" y="0.0" type="line"/>
      <point x="152.0" y="0.0" type="line"/>
      <point x="152.0" y="296.0" type="line" smooth="yes"/>
      <point x="152.0" y="378.0"/>
      <point x="207.0" y="429.0"/>
      <point x="294.0" y="429.0" type="curve" smooth="yes"/>
      <point x="366.0" y="429.0"/>
      <point x="412.0" y="378.0"/>
      <point x="412.0" y="296.0" type="curve" smooth="yes"/>
      <point x="412.0" y="0.0" type="line"/>
      <point x="492.0" y="0.0" type="line"/>
      <point x="492.0" y="314.0" type="line" smooth="yes"/>
      <point x="492.0" y="431.0"/>
      <point x="416.0" y="503.0"/>
      <point x="306.0" y="503.0" type="curve" smooth="yes"/>
      <point x="225.0" y="503.0"/>
      <point x="181.0" y="463.0"/>
      <point x="154.0" y="416.0" type="curve"/>
      <point x="148.0" y="416.0" type="line"/>
      <point x="148.0" y="490.0" type="line"/>
      <point x="72.0" y="490.0" type="line"/>
    </contour>
  </outline>
</glyph>
<glyph name="r" format="2">
  <advance width="344.0"/>
  <unicode hex="0072"/>
  <anchor x="112.0" y="0.0" name="bottom"/>
  <anchor x="205.0" y="490.0" name="top"/>
  <outline>
    <contour>
      <point x="72.0" y="0.0" type="line"/>
      <point x="152.0" y="0.0" type="line"/>
      <point x="152.0" y="287.0" type="line" smooth="yes"/>
      <point x="152.0" y="374.0"/>
      <point x="213.0" y="416.0"/>
      <point x="307.0" y="416.0" type="curve" smooth="yes"/>
      <point x="332.0" y="416.0" type="line"/>
      <point x="334.0" y="496.0" type="line"/>
      <point x="326.0" y="497.0"/>
      <point x="318.0" y="497.0"/>
      <point x="311.0" y="497.0" type="curve" smooth="yes"/>
      <point x="224.0" y="497.0"/>
      <point x="175.0" y="463.0"/>
      <point x="154.0" y="415.0" type="curve"/>
      <point x="148.0" y="415.0" type="line"/>
      <point x="148.0" y="490.0" type="line"/>
      <point x="72.0" y="490.0" type="line"/>
    </contour>
  </outline>
</glyph>
<glyph name="u" format="2">
  <advance width="550.0"/>
  <unicode hex="0075"/>
  <anchor x="262.0" y="0.0" name="bottom"/>
  <anchor x="400.0" y="0.0" name="ogonek"/>
  <anchor x="272.0" y="490.0" name="top"/>
  <anchor x="478.0" y="490.0" name="topright"/>
  <outline>
    <contour>
      <point x="248.0" y="-13.0" type="curve" smooth="yes"/>
      <point x="324.0" y="-13.0"/>
      <point x="369.0" y="27.0"/>
      <point x="396.0" y="74.0" type="curve"/>
      <point x="402.0" y="74.0" type="line"/>
      <point x="402.0" y="0.0" type="line"/>
      <point x="478.0" y="0.0" type="line"/>
      <point x="478.0" y="490.0" type="line"/>
      <point x="398.0" y="490.0" type="line"/>
      <point x="398.0" y="194.0" type="line" smooth="yes"/>
      <point x="398.0" y="112.0"/>
      <point x="342.0" y="61.0"/>
      <point x="260.0" y="61.0" type="curve" smooth="yes"/>
      <point x="193.0" y="61.0"/>
      <point x="147.0" y="112.0"/>
      <point x="147.0" y="194.0" type="curve" smooth="yes"/>
      <point x="147.0" y="490.0" type="line"/>
      <point x="67.0" y="490.0" type="line"/>
      <point x="67.0" y="176.0" type="line" smooth="yes"/>
      <point x="67.0" y="59.0"/>
      <point x="144.0" y="-13.0"/>
    </contour>
  </outline>
</glyph>
<glyph name="registered" format="2">
  <advance width="591.0"/>
  <unicode hex="00AE"/>
  <outline>
    <contour>
      <point x="295.0" y="230.0" type="curve" smooth="yes"/>
      <point x="433.0" y="230.0"/>
      <point x="536.0" y="341.0"/>
      <point x="536.0" y="479.0" type="curve" smooth="yes"/>
      <point x="536.0" y="617.0"/>
      <point x="433.0" y="727.0"/>
      <point x="295.0" y="727.0" type="curve" smooth="yes"/>
      <point x="158.0" y="727.0"/>
      <point x="55.0" y="617.0"/>
      <point x="55.0" y="479.0" type="curve" smooth="yes"/>
      <point x="55.0" y="341.0"/>
      <point x="158.0" y="230.0"/>
    </contour>
    <contour>
      <point x="295.0" y="270.0" type="curve" smooth="yes"/>
      <point x="181.0" y="270.0"/>
      <point x="97.0" y="364.0"/>
      <point x="97.0" y="479.0" type="curve" smooth="yes"/>
      <point x="97.0" y="593.0"/>
      <point x="181.0" y="687.0"/>
      <point x="295.0" y="687.0" type="curve" smooth="yes"/>
      <point x="410.0" y="687.0"/>
      <point x="494.0" y="593.0"/>
      <point x="494.0" y="479.0" type="curve" smooth="yes"/>
      <point x="494.0" y="364.0"/>
      <point x="410.0" y="270.0"/>
    </contour>
    <contour>
      <point x="208.0" y="350.0" type="line"/>
      <point x="243.0" y="350.0" type="line"/>
      <point x="243.0" y="462.0" type="line"/>
      <point x="277.0" y="462.0" type="line"/>
      <point x="283.0" y="452.0"/>
      <point x="287.0" y="445.0"/>
      <point x="291.0" y="439.0" type="curve" smooth="yes"/>
      <point x="349.0" y="350.0" type="line"/>
      <point x="390.0" y="350.0" type="line"/>
      <point x="315.0" y="465.0" type="line"/>
      <point x="353.0" y="469.0"/>
      <point x="387.0" y="494.0"/>
      <point x="387.0" y="538.0" type="curve" smooth="yes"/>
      <point x="387.0" y="587.0"/>
      <point x="346.0" y="611.0"/>
      <point x="295.0" y="611.0" type="curve" smooth="yes"/>
      <point x="208.0" y="611.0" type="line"/>
    </contour>
    <contour>
      <point x="243.0" y="492.0" type="line"/>
      <point x="243.0" y="582.0" type="line"/>
      <point x="291.0" y="582.0" type="line" smooth="yes"/>
      <point x="328.0" y="582.0"/>
      <point x="352.0" y="571.0"/>
      <point x="352.0" y="538.0" type="curve" smooth="yes"/>
      <point x="352.0" y="503.0"/>
      <point x="328.0" y="492.0"/>
      <point x="291.0" y="492.0" type="curve" smooth="yes"/>
    </contour>
  </outline>
</glyph>
<glyph name="degree" format="2">
  <advance width="431.0"/>
  <unicode hex="00B0"/>
  <outline>
    <contour>
      <point x="215.0" y="387.0" type="curve" smooth="yes"/>
      <point x="307.0" y="387.0"/>
      <point x="376.0" y="458.0"/>
      <point x="376.0" y="546.0" type="curve" smooth="yes"/>
      <point x="376.0" y="634.0"/>
      <point x="308.0" y="709.0"/>
      <point x="215.0" y="709.0" type="curve" smooth="yes"/>
      <point x="122.0" y="709.0"/>
      <point x="55.0" y="636.0"/>
      <point x="55.0" y="546.0" type="curve" smooth="yes"/>
      <point x="55.0" y="458.0"/>
      <point x="122.0" y="387.0"/>
    </contour>
    <contour>
      <point x="215.0" y="435.0" type="curve" smooth="yes"/>
      <point x="154.0" y="435.0"/>
      <point x="110.0" y="484.0"/>
      <point x="110.0" y="545.0" type="curve" smooth="yes"/>
      <point x="110.0" y="611.0"/>
      <point x="154.0" y="661.0"/>
      <point x="215.0" y="661.0" type="curve" smooth="yes"/>
      <point x="276.0" y="661.0"/>
      <point x="319.0" y="611.0"/>
      <point x="319.0" y="545.0" type="curve" smooth="yes"/>
      <point x="321.0" y="483.0"/>
      <point x="277.0" y="435.0"/>
    </contour>
  </outline>
</glyph>
<glyph name="ordmasculine" format="2">
  <advance width="508.0"/>
  <unicode hex="00BA"/>
  <outline>
    <contour>
      <point x="254.0" y="312.0" type="curve" smooth="yes"/>
      <point x="374.0" y="312.0"/>
      <point x="453.0" y="405.0"/>
      <point x="453.0" y="512.0" type="curve" smooth="yes"/>
      <point x="453.0" y="620.0"/>
      <point x="374.0" y="713.0"/>
      <point x="254.0" y="713.0" type="curve" smooth="yes"/>
      <point x="134.0" y="713.0"/>
      <point x="55.0" y="620.0"/>
      <point x="55.0" y="512.0" type="curve" smooth="yes"/>
      <point x="55.0" y="405.0"/>
      <point x="134.0" y="312.0"/>
    </contour>
    <contour>
      <point x="254.0" y="370.0" type="curve" smooth="yes"/>
      <point x="171.0" y="370.0"/>
      <point x="119.0" y="430.0"/>
      <point x="119.0" y="512.0" type="curve" smooth="yes"/>
      <point x="119.0" y="593.0"/>
      <point x="171.0" y="655.0"/>
      <point x="254.0" y="655.0" type="curve" smooth="yes"/>
      <point x="336.0" y="655.0"/>
      <point x="388.0" y="593.0"/>
      <point x="388.0" y="512.0" type="curve" smooth="yes"/>
      <point x="388.0" y="430.0"/>
      <point x="336.0" y="370.0"/>
    </contour>
    <contour>
      <point x="76.0" y="201.0" type="line"/>
      <point x="432.0" y="201.0" type="line"/>
      <point x="432.0" y="256.0" type="line"/>
      <point x="76.0" y="256.0" type="line"/>
    </contour>
  </outline>
</glyph>
<glyph name="multiply" format="2">
  <advance width="596.0"/>
  <unicode hex="00D7"/>
  <outline>
    <contour>
      <point x="442.0" y="87.0" type="line"/>
      <point x="489.0" y="135.0" type="line"/>
      <point x="152.0" y="473.0" type="line"/>
      <point x="105.0" y="425.0" type="line"/>
    </contour>
    <contour>
      <point x="152.0" y="87.0" type="line"/>
      <point x="489.0" y="425.0" type="line"/>
      <point x="442.0" y="473.0" type="line"/>
      <point x="105.0" y="135.0" type="line"/>
    </contour>
  </outline>
</glyph>
<glyph name="germandbls" format="2">
  <advance width="612.0"/>
  <unicode hex="00DF"/>
  <outline>
    <contour>
      <point x="338.0" y="-13.0" type="curve" smooth="yes"/>
      <point x="494.0" y="-13.0"/>
      <point x="565.0" y="90.0"/>
      <point x="565.0" y="205.0" type="curve" smooth="yes"/>
      <point x="565.0" y="319.0"/>
      <point x="480.0" y="404.0"/>
      <point x="366.0" y="404.0" type="curve"/>
      <point x="366.0" y="408.0" type="line"/>
      <point x="445.0" y="428.0"/>
      <point x="504.0" y="494.0"/>
      <point x="504.0" y="569.0" type="curve" smooth="yes"/>
      <point x="504.0" y="664.0"/>
      <point x="414.0" y="753.0"/>
      <point x="295.0" y="753.0" type="curve" smooth="yes"/>
      <point x="168.0" y="753.0"/>
      <point x="72.0" y="659.0"/>
      <point x="72.0" y="534.0" type="curve" smooth="yes"/>
      <point x="72.0" y="0.0" type="line"/>
      <point x="152.0" y="0.0" type="line"/>
      <point x="152.0" y="534.0" type="line" smooth="yes"/>
      <point x="152.0" y="622.0"/>
      <point x="209.0" y="677.0"/>
      <point x="291.0" y="677.0" type="curve" smooth="yes"/>
      <point x="370.0" y="677.0"/>
      <point x="422.0" y="630.0"/>
      <point x="422.0" y="554.0" type="curve" smooth="yes"/>
      <point x="422.0" y="476.0"/>
      <point x="354.0" y="434.0"/>
      <point x="250.0" y="423.0" type="curve"/>
      <point x="250.0" y="357.0" type="line"/>
      <point x="384.0" y="380.0"/>
      <point x="485.0" y="319.0"/>
      <point x="485.0" y="196.0" type="curve" smooth="yes"/>
      <point x="485.0" y="114.0"/>
      <point x="431.0" y="61.0"/>
      <point x="341.0" y="61.0" type="curve" smooth="yes"/>
      <point x="307.0" y="61.0"/>
      <point x="284.0" y="64.0"/>
      <point x="250.0" y="76.0" type="curve"/>
      <point x="250.0" y="3.0" type="line"/>
      <point x="273.0" y="-9.0"/>
      <point x="307.0" y="-13.0"/>
    </contour>
  </outline>
</glyph>
<glyph name="OE" format="2">
  <advance width="1121.0"/>
  <unicode hex="0152"/>
  <anchor x="653.0" y="0.0" name="bottom"/>
  <anchor x="960.0" y="0.0" name="ogonek"/>
  <anchor x="653.0" y="700.0" name="top"/>
  <outline>
    <contour>
      <point x="692.0" y="203.0" type="curve"/>
      <point x="627.0" y="113.0" type="line"/>
      <point x="662.0" y="113.0" type="line"/>
      <point x="666.0" y="587.0" type="line"/>
      <point x="638.0" y="587.0" type="line"/>
      <point x="692.0" y="492.0" type="line"/>
      <point x="642.0" y="634.0"/>
      <point x="544.0" y="713.0"/>
      <point x="389.0" y="713.0" type="curve" smooth="yes"/>
      <point x="183.0" y="713.0"/>
      <point x="41.0" y="550.0"/>
      <point x="41.0" y="349.0" type="curve" smooth="yes"/>
      <point x="41.0" y="148.0"/>
      <point x="183.0" y="-13.0"/>
      <point x="389.0" y="-13.0" type="curve" smooth="yes"/>
      <point x="544.0" y="-13.0"/>
      <point x="642.0" y="67.0"/>
    </contour>
    <contour>
      <point x="389.0" y="63.0" type="curve" smooth="yes"/>
      <point x="231.0" y="63.0"/>
      <point x="125.0" y="178.0"/>
      <point x="125.0" y="349.0" type="curve" smooth="yes"/>
      <point x="125.0" y="520.0"/>
      <point x="231.0" y="637.0"/>
      <point x="389.0" y="637.0" type="curve" smooth="yes"/>
      <point x="548.0" y="637.0"/>
      <point x="653.0" y="529.0"/>
      <point x="653.0" y="350.0" type="curve" smooth="yes"/>
      <point x="653.0" y="179.0"/>
      <point x="548.0" y="63.0"/>
    </contour>
    <component base="E" xOffset="571.0"/>
  </outline>
</glyph>
<glyph name="tildecomb" format="2">
  <unicode hex="0303"/>
  <anchor x="0.0" y="490.0" name="_top"/>
  <anchor x="0.0" y="660.0" name="top"/>
  <outline>
    <contour>
      <point x="70.0" y="578.0" type="curve" smooth="yes"/>
      <point x="122.0" y="578.0"/>
      <point x="158.0" y="617.0"/>
      <point x="158.0" y="685.0" type="curve"/>
      <point x="108.0" y="685.0" type="line"/>
      <point x="108.0" y="650.0"/>
      <point x="92.0" y="635.0"/>
      <point x="70.0" y="635.0" type="curve" smooth="yes"/>
      <point x="25.0" y="635.0"/>
      <point x="23.0" y="703.0"/>
      <point x="-62.0" y="703.0" type="curve" smooth="yes"/>
      <point x="-113.0" y="703.0"/>
      <point x="-149.0" y="664.0"/>
      <point x="-149.0" y="596.0" type="curve"/>
      <point x="-101.0" y="596.0" type="line"/>
      <point x="-101.0" y="631.0"/>
      <point x="-84.0" y="646.0"/>
      <point x="-60.0" y="646.0" type="curve" smooth="yes"/>
      <point x="-16.0" y="646.0"/>
      <point x="-15.0" y="578.0"/>
    </contour>
  </outline>
</glyph>
<glyph name="breveinvertedcomb" format="2">
  <unicode hex="0311"/>
  <anchor x="0.0" y="490.0" name="_top"/>
  <anchor x="0.0" y="660.0" name="top"/>
  <outline>
    <contour>
      <point x="-135.0" y="553.0" type="curve"/>
      <point x="-72.0" y="553.0" type="line"/>
      <point x="-74.0" y="590.0"/>
      <point x="-53.0" y="631.0"/>
      <point x="0.0" y="631.0" type="curve" smooth="yes"/>
      <point x="50.0" y="631.0"/>
      <point x="74.0" y="590.0"/>
      <point x="72.0" y="553.0" type="curve"/>
      <point x="135.0" y="553.0" type="line"/>
      <point x="135.0" y="630.0"/>
      <point x="80.0" y="686.0"/>
      <point x="0.0" y="686.0" type="curve" smooth="yes"/>
      <point x="-80.0" y="686.0"/>
      <point x="-135.0" y="630.0"/>
    </contour>
  </outline>
</glyph>
<glyph name="daggerdbl" format="2">
  <advance width="360.0"/>
  <unicode hex="2021"/>
  <outline>
    <contour>
      <point x="145.0" y="301.0" type="line"/>
      <point x="215.0" y="301.0" type="line"/>
      <point x="215.0" y="753.0" type="line"/>
      <point x="145.0" y="753.0" type="line"/>
    </contour>
    <contour>
      <point x="40.0" y="406.0" type="line"/>
      <point x="320.0" y="406.0" type="line"/>
      <point x="320.0" y="471.0" type="line"/>
      <point x="40.0" y="471.0" type="line"/>
    </contour>
    <contour>
      <point x="40.0" y="583.0" type="line"/>
      <point x="320.0" y="583.0" type="line"/>
      <point x="320.0" y="648.0" type="line"/>
      <point x="40.0" y="648.0" type="line"/>
    </contour>
  </outline>
</glyph>
<glyph name="won" format="2">
  <advance width="852.0"/>
  <unicode hex="20A9"/>
  <outline>
    <contour>
      <point x="204.0" y="30.0" type="line"/>
      <point x="276.0" y="30.0" type="line"/>
      <point x="405.0" y="464.0" type="line" smooth="yes"/>
      <point x="420.0" y="516.0"/>
      <point x="425.0" y="538.0"/>
      <point x="429.0" y="564.0" type="curve"/>
      <point x="433.0" y="564.0" type="line"/>
      <point x="437.0" y="538.0"/>
      <point x="442.0" y="517.0"/>
      <point x="457.0" y="464.0" type="curve" smooth="yes"/>
      <point x="576.0" y="30.0" type="line"/>
      <point x="648.0" y="30.0" type="line"/>
      <point x="833.0" y="670.0" type="line"/>
      <point x="747.0" y="670.0" type="line"/>
      <point x="632.0" y="245.0" type="line" smooth="yes"/>
      <point x="618.0" y="193.0"/>
      <point x="618.0" y="169.0"/>
      <point x="614.0" y="144.0" type="curve"/>
      <point x="610.0" y="144.0" type="line"/>
      <point x="607.0" y="169.0"/>
      <point x="607.0" y="192.0"/>
      <point x="593.0" y="245.0" type="curve" smooth="yes"/>
      <point x="478.0" y="670.0" type="line"/>
      <point x="383.0" y="670.0" type="line"/>
      <point x="265.0" y="245.0" type="line" smooth="yes"/>
      <point x="250.0" y="193.0"/>
      <point x="249.0" y="169.0"/>
      <point x="246.0" y="144.0" type="curve"/>
      <point x="243.0" y="144.0" type="line"/>
      <point x="240.0" y="169.0"/>
      <point x="238.0" y="191.0"/>
      <point x="224.0" y="245.0" type="curve" smooth="yes"/>
      <point x="113.0" y="670.0" type="line"/>
      <point x="23.0" y="670.0" type="line"/>
    </contour>
    <contour>
      <point x="10.0" y="293.0" type="line"/>
      <point x="842.0" y="293.0" type="line"/>
      <point x="842.0" y="355.0" type="line"/>
      <point x="10.0" y="355.0" type="line"/>
    </contour>
    <contour>
      <point x="10.0" y="404.0" type="line"/>
      <point x="842.0" y="404.0" type="line"/>
      <point x="842.0" y="466.0" type="line"/>
      <point x="10.0" y="466.0" type="line"/>
    </contour>
  </outline>
</glyph>
<glyph name="tugrik" format="2">
  <advance width="591.0"/>
  <unicode hex="20AE"/>
  <outline>
    <contour>
      <point x="255.0" y="30.0" type="line"/>
      <point x="337.0" y="30.0" type="line"/>
      <point x="337.0" y="631.0" type="line"/>
      <point x="255.0" y="631.0" type="line"/>
    </contour>
    <contour>
      <point x="47.0" y="594.0" type="line"/>
      <point x="544.0" y="594.0" type="line"/>
      <point x="544.0" y="670.0" type="line"/>
      <point x="47.0" y="670.0" type="line"/>
    </contour>
    <contour>
      <point x="65.0" y="183.0" type="line"/>
      <point x="526.0" y="278.0" type="line"/>
      <point x="526.0" y="355.0" type="line"/>
      <point x="65.0" y="260.0" type="line"/>
    </contour>
    <contour>
      <point x="65.0" y="316.0" type="line"/>
      <point x="526.0" y="411.0" type="line"/>
      <point x="526.0" y="488.0" type="line"/>
      <point x="65.0" y="393.0" type="line"/>
    </contour>
  </outline>
</glyph>
<glyph name="ruble" format="2">
  <advance width="556.0"/>
  <unicode hex="20BD"/>
  <outline>
    <contour>
      <point x="82.0" y="30.0" type="line"/>
      <point x="164.0" y="30.0" type="line"/>
      <point x="164.0" y="267.0" type="line"/>
      <point x="306.0" y="267.0" type="line" smooth="yes"/>
      <point x="433.0" y="267.0"/>
      <point x="534.0" y="333.0"/>
      <point x="534.0" y="470.0" type="curve" smooth="yes"/>
      <point x="534.0" y="606.0"/>
      <point x="432.0" y="670.0"/>
      <point x="306.0" y="670.0" type="curve" smooth="yes"/>
      <point x="82.0" y="670.0" type="line"/>
    </contour>
    <contour>
      <point x="164.0" y="343.0" type="line"/>
      <point x="164.0" y="594.0" type="line"/>
      <point x="298.0" y="594.0" type="line" smooth="yes"/>
      <point x="388.0" y="594.0"/>
      <point x="449.0" y="562.0"/>
      <point x="449.0" y="470.0" type="curve" smooth="yes"/>
      <point x="449.0" y="376.0"/>
      <point x="388.0" y="343.0"/>
      <point x="298.0" y="343.0" type="curve" smooth="yes"/>
    </contour>
    <contour>
      <point x="20.0" y="267.0" type="line"/>
      <point x="183.0" y="267.0" type="line"/>
      <point x="183.0" y="339.0" type="line"/>
      <point x="20.0" y="339.0" type="line"/>
    </contour>
    <contour>
      <point x="20.0" y="146.0" type="line"/>
      <point x="428.0" y="146.0" type="line"/>
      <point x="427.0" y="218.0" type="line"/>
      <point x="20.0" y="218.0" type="line"/>
    </contour>
  </outline>
</glyph>
<glyph name="increment" format="2">
  <advance width="702.0"/>
  <unicode hex="2206"/>
  <outline>
    <contour>
      <point x="13.0" y="0.0" type="line"/>
      <point x="689.0" y="0.0" type="line"/>
      <point x="376.0" y="700.0" type="line"/>
      <point x="326.0" y="700.0" type="line"/>
    </contour>
    <contour>
      <point x="118.0" y="43.0" type="line"/>
      <point x="343.0" y="572.0" type="line" smooth="yes"/>
      <point x="345.0" y="577.0"/>
      <point x="348.0" y="584.0"/>
      <point x="350.0" y="591.0" type="curve"/>
      <point x="354.0" y="591.0" type="line"/>
      <point x="355.0" y="584.0"/>
      <point x="359.0" y="577.0"/>
      <point x="361.0" y="572.0" type="curve" smooth="yes"/>
      <point x="582.0" y="43.0" type="line"/>
      <point x="599.0" y="77.0" type="line"/>
      <point x="100.0" y="77.0" type="line"/>
    </contour>
  </outline>
</glyph>
<glyph name="integral" format="2">
  <advance width="421.0"/>
  <unicode hex="222B"/>
  <outline>
    <contour>
      <point x="-120.0" y="-223.0" type="line"/>
      <point x="-96.0" y="-229.0"/>
      <point x="-79.0" y="-233.0"/>
      <point x="-45.0" y="-233.0" type="curve" smooth="yes"/>
      <point x="49.0" y="-233.0"/>
      <point x="122.0" y="-190.0"/>
      <point x="153.0" y="-51.0" type="curve" smooth="yes"/>
      <point x="275.0" y="499.0" type="line" smooth="yes"/>
      <point x="299.0" y="606.0"/>
      <point x="326.0" y="638.0"/>
      <point x="398.0" y="638.0" type="curve" smooth="yes"/>
      <point x="411.0" y="638.0"/>
      <point x="425.0" y="636.0"/>
      <point x="438.0" y="631.0" type="curve"/>
      <point x="451.0" y="704.0" type="line"/>
      <point x="437.0" y="709.0"/>
      <point x="418.0" y="713.0"/>
      <point x="398.0" y="713.0" type="curve" smooth="yes"/>
      <point x="301.0" y="713.0"/>
      <point x="229.0" y="666.0"/>
      <point x="198.0" y="526.0" type="curve" smooth="yes"/>
      <point x="70.0" y="-54.0" type="line" smooth="yes"/>
      <point x="53.0" y="-129.0"/>
      <point x="21.0" y="-158.0"/>
      <point x="-45.0" y="-158.0" type="curve" smooth="yes"/>
      <point x="-68.0" y="-158.0"/>
      <point x="-84.0" y="-156.0"/>
      <point x="-108.0" y="-149.0" type="curve"/>
    </contour>
  </outline>
</glyph>
<glyph name="lessequal" format="2">
  <advance width="596.0"/>
  <unicode hex="2264"/>
  <outline>
    <contour>
      <point x="531.0" y="220.0" type="line"/>
      <point x="531.0" y="305.0" type="line"/>
      <point x="225.0" y="427.0" type="line"/>
      <point x="225.0" y="431.0" type="line"/>
      <point x="531.0" y="555.0" type="line"/>
      <point x="531.0" y="640.0" type="line"/>
      <point x="52.0" y="430.0" type="line"/>
    </contour>
    <contour>
      <point x="79.0" y="100.0" type="line"/>
      <point x="531.0" y="100.0" type="line"/>
      <point x="531.0" y="172.0" type="line"/>
      <point x="79.0" y="172.0" type="line"/>
    </contour>
  </outline>
</glyph>
<glyph name="upBlackSmallTriangle" format="2">
  <advance width="287.0"/>
  <unicode hex="25B4"/>
  <outline>
    <contour>
      <point x="45.0" y="292.0" type="line"/>
      <point x="242.0" y="292.0" type="line"/>
      <point x="143.0" y="463.0" type="line"/>
    </contour>
  </outline>
</glyph>
<glyph name="rightBlackTriangle" format="2">
  <advance width="761.0"/>
  <unicode hex="25B6"/>
  <outline>
    <contour>
      <point x="90.0" y="728.0" type="line"/>
      <point x="90.0" y="-13.0" type="line"/>
      <point x="731.0" y="357.0" type="line"/>
    </contour>
  </outline>
</glyph>
<glyph name="rightBlackSmallTriangle" format="2">
  <advance width="291.0"/>
  <unicode hex="25B8"/>
  <outline>
    <contour>
      <point x="90.0" y="261.0" type="line"/>
      <point x="261.0" y="360.0" type="line"/>
      <point x="90.0" y="458.0" type="line"/>
    </contour>
  </outline>
</glyph>
<glyph name="rightWhiteSmallTriangle" format="2">
  <advance width="281.0"/>
  <unicode hex="25B9"/>
  <outline>
    <contour>
      <point x="90.0" y="261.0" type="line"/>
      <point x="261.0" y="360.0" type="line"/>
      <point x="90.0" y="458.0" type="line"/>
    </contour>
    <contour>
      <point x="126.0" y="396.0" type="line"/>
      <point x="189.0" y="360.0" type="line"/>
      <point x="126.0" y="324.0" type="line"/>
    </contour>
  </outline>
</glyph>
<glyph name="whiteCircle" format="2">
  <advance width="786.0"/>
  <unicode hex="25CB"/>
  <outline>
    <contour>
      <point x="394.0" y="-13.0" type="curve" smooth="yes"/>
      <point x="593.0" y="-13.0"/>
      <point x="756.0" y="149.0"/>
      <point x="756.0" y="350.0" type="curve" smooth="yes"/>
      <point x="756.0" y="549.0"/>
      <point x="593.0" y="713.0"/>
      <point x="394.0" y="713.0" type="curve" smooth="yes"/>
      <point x="194.0" y="713.0"/>
      <point x="30.0" y="549.0"/>
      <point x="30.0" y="350.0" type="curve" smooth="yes"/>
      <point x="30.0" y="149.0"/>
      <point x="194.0" y="-13.0"/>
    </contour>
    <contour>
      <point x="394.0" y="39.0" type="curve" smooth="yes"/>
      <point x="224.0" y="39.0"/>
      <point x="86.0" y="181.0"/>
      <point x="86.0" y="350.0" type="curve" smooth="yes"/>
      <point x="86.0" y="515.0"/>
      <point x="221.0" y="661.0"/>
      <point x="394.0" y="661.0" type="curve" smooth="yes"/>
      <point x="570.0" y="661.0"/>
      <point x="700.0" y="512.0"/>
      <point x="700.0" y="350.0" type="curve" smooth="yes"/>
      <point x="700.0" y="178.0"/>
      <point x="560.0" y="39.0"/>
    </contour>
  </outline>
</glyph>
<glyph name="heavyBallotX" format="2">
  <advance width="600.0"/>
  <unicode hex="2718"/>
  <outline>
    <contour>
      <point x="154.0" y="158.0" type="curve" smooth="yes"/>
      <point x="239.0" y="235.0"/>
      <point x="421.0" y="468.0"/>
      <point x="458.0" y="574.0" type="curve" smooth="yes"/>
      <point x="466.0" y="597.0"/>
      <point x="449.0" y="607.0"/>
      <point x="437.0" y="590.0" type="curve" smooth="yes"/>
      <point x="337.0" y="449.0"/>
      <point x="177.0" y="249.0"/>
      <point x="128.0" y="174.0" type="curve" smooth="yes"/>
      <point x="113.0" y="151.0"/>
      <point x="133.0" y="139.0"/>
    </contour>
    <contour>
      <point x="418.0" y="176.0" type="curve" smooth="yes"/>
      <point x="433.0" y="156.0"/>
      <point x="454.0" y="159.0"/>
      <point x="465.0" y="184.0" type="curve" smooth="yes"/>
      <point x="472.0" y="201.0"/>
      <point x="472.0" y="226.0"/>
      <point x="464.0" y="238.0" type="curve" smooth="yes"/>
      <point x="439.0" y="282.0"/>
      <point x="228.0" y="535.0"/>
      <point x="200.0" y="576.0" type="curve" smooth="yes"/>
      <point x="185.0" y="596.0"/>
      <point x="164.0" y="593.0"/>
      <point x="153.0" y="568.0" type="curve" smooth="yes"/>
      <point x="146.0" y="551.0"/>
      <point x="146.0" y="526.0"/>
      <point x="154.0" y="514.0" type="curve" smooth="yes"/>
      <point x="179.0" y="470.0"/>
      <point x="390.0" y="217.0"/>
    </contour>
  </outline>
</glyph>
<glyph name="whiteFourPointedStar" format="2">
  <advance width="585.0"/>
  <unicode hex="2727"/>
  <outline>
    <contour>
      <point x="286.0" y="39.0" type="curve"/>
      <point x="298.0" y="39.0" type="line"/>
      <point x="385.0" y="248.0"/>
      <point x="404.0" y="271.0"/>
      <point x="580.0" y="335.0" type="curve"/>
      <point x="580.0" y="349.0" type="line"/>
      <point x="404.0" y="413.0"/>
      <point x="385.0" y="436.0"/>
      <point x="298.0" y="645.0" type="curve"/>
      <point x="286.0" y="645.0" type="line"/>
      <point x="199.0" y="436.0"/>
      <point x="180.0" y="413.0"/>
      <point x="5.0" y="349.0" type="curve"/>
      <point x="5.0" y="335.0" type="line"/>
      <point x="180.0" y="271.0"/>
      <point x="199.0" y="248.0"/>
    </contour>
    <contour>
      <point x="290.0" y="67.0" type="line"/>
      <point x="263.0" y="262.0"/>
      <point x="219.0" y="318.0"/>
      <point x="33.0" y="340.0" type="curve"/>
      <point x="33.0" y="344.0" type="line"/>
      <point x="219.0" y="366.0"/>
      <point x="263.0" y="422.0"/>
      <point x="290.0" y="617.0" type="curve"/>
      <point x="294.0" y="617.0" type="line"/>
      <point x="321.0" y="422.0"/>
      <point x="365.0" y="366.0"/>
      <point x="552.0" y="344.0" type="curve"/>
      <point x="552.0" y="340.0" type="line"/>
      <point x="365.0" y="318.0"/>
      <point x="321.0" y="262.0"/>
      <point x="294.0" y="67.0" type="curve"/>
    </contour>
  </outline>
</glyph>
<glyph name="C.ss10" format="2">
  <advance width="585.0"/>
  <anchor x="399.0" y="0.0" name="bottom"/>
  <anchor x="502.0" y="0.0" name="ogonek"/>
  <anchor x="399.0" y="700.0" name="top"/>
  <outline>
    <contour>
      <point x="399.0" y="-13.0" type="curve" smooth="yes"/>
      <point x="458.0" y="-13.0"/>
      <point x="509.0" y="-2.0"/>
      <point x="554.0" y="19.0" type="curve"/>
      <point x="560.0" y="116.0" type="line"/>
      <point x="518.0" y="83.0"/>
      <point x="469.0" y="67.0"/>
      <point x="402.0" y="67.0" type="curve" smooth="yes"/>
      <point x="251.0" y="67.0"/>
      <point x="128.0" y="182.0"/>
      <point x="128.0" y="349.0" type="curve" smooth="yes"/>
      <point x="128.0" y="515.0"/>
      <point x="241.0" y="633.0"/>
      <point x="399.0" y="633.0" type="curve" smooth="yes"/>
      <point x="461.0" y="633.0"/>
      <point x="517.0" y="618.0"/>
      <point x="564.0" y="578.0" type="curve"/>
      <point x="564.0" y="674.0" type="line"/>
      <point x="516.0" y="701.0"/>
      <point x="461.0" y="713.0"/>
      <point x="399.0" y="713.0" type="curve" smooth="yes"/>
      <point x="195.0" y="713.0"/>
      <point x="41.0" y="553.0"/>
      <point x="41.0" y="349.0" type="curve" smooth="yes"/>
      <point x="41.0" y="145.0"/>
      <point x="197.0" y="-13.0"/>
    </contour>
  </outline>
</glyph>
<glyph name="ae.ss01" format="2">
  <advance width="901.0"/>
  <anchor x="422.0" y="0.0" name="bottom"/>
  <anchor x="629.0" y="0.0" name="ogonek"/>
  <anchor x="422.0" y="490.0" name="top"/>
  <outline>
    <contour>
      <point x="229.0" y="-13.0" type="curve" smooth="yes"/>
      <point x="313.0" y="-13.0"/>
      <point x="384.0" y="33.0"/>
      <point x="417.0" y="104.0" type="curve"/>
      <point x="421.0" y="104.0" type="line"/>
      <point x="464.0" y="31.0"/>
      <point x="539.0" y="-13.0"/>
      <point x="630.0" y="-13.0" type="curve" smooth="yes"/>
      <point x="718.0" y="-13.0"/>
      <point x="791.0" y="19.0"/>
      <point x="837.0" y="80.0" type="curve"/>
      <point x="780.0" y="129.0" type="line"/>
      <point x="745.0" y="81.0"/>
      <point x="699.0" y="61.0"/>
      <point x="631.0" y="61.0" type="curve" smooth="yes"/>
      <point x="537.0" y="61.0"/>
      <point x="462.0" y="129.0"/>
      <point x="460.0" y="233.0" type="curve"/>
      <point x="460.0" y="245.0" type="line"/>
      <point x="459.0" y="362.0"/>
      <point x="526.0" y="429.0"/>
      <point x="627.0" y="429.0" type="curve" smooth="yes"/>
      <point x="733.0" y="429.0"/>
      <point x="789.0" y="361.0"/>
      <point x="785.0" y="254.0" type="curve"/>
      <point x="813.0" y="293.0" type="line"/>
      <point x="432.0" y="293.0" type="line"/>
      <point x="460.0" y="223.0" type="line"/>
      <point x="863.0" y="223.0" type="line"/>
      <point x="865.0" y="232.0"/>
      <point x="865.0" y="245.0"/>
      <point x="865.0" y="255.0" type="curve" smooth="yes"/>
      <point x="865.0" y="406.0"/>
      <point x="776.0" y="503.0"/>
      <point x="629.0" y="503.0" type="curve" smooth="yes"/>
      <point x="531.0" y="503.0"/>
      <point x="466.0" y="453.0"/>
      <point x="438.0" y="408.0" type="curve"/>
      <point x="432.0" y="408.0" type="line"/>
      <point x="400.0" y="468.0"/>
      <point x="336.0" y="503.0"/>
      <point x="259.0" y="503.0" type="curve" smooth="yes"/>
      <point x="170.0" y="503.0"/>
      <point x="108.0" y="476.0"/>
      <point x="50.0" y="413.0" type="curve"/>
      <point x="104.0" y="357.0" type="line"/>
      <point x="147.0" y="405.0"/>
      <point x="184.0" y="429.0"/>
      <point x="254.0" y="429.0" type="curve" smooth="yes"/>
      <point x="349.0" y="429.0"/>
      <point x="381.0" y="362.0"/>
      <point x="381.0" y="320.0" type="curve" smooth="yes"/>
      <point x="381.0" y="256.0" type="line"/>
      <point x="394.0" y="294.0" type="line"/>
      <point x="260.0" y="286.0" type="line" smooth="yes"/>
      <point x="123.0" y="278.0"/>
      <point x="47.0" y="219.0"/>
      <point x="47.0" y="132.0" type="curve" smooth="yes"/>
      <point x="47.0" y="42.0"/>
      <point x="131.0" y="-13.0"/>
    </contour>
    <contour>
      <point x="238.0" y="61.0" type="curve" smooth="yes"/>
      <point x="170.0" y="61.0"/>
      <point x="127.0" y="86.0"/>
      <point x="127.0" y="136.0" type="curve" smooth="yes"/>
      <point x="127.0" y="181.0"/>
      <point x="168.0" y="210.0"/>
      <point x="265.0" y="216.0" type="curve" smooth="yes"/>
      <point x="392.0" y="224.0" type="line"/>
      <point x="381.0" y="241.0" type="line"/>
      <point x="381.0" y="211.0" type="line" smooth="yes"/>
      <point x="381.0" y="125.0"/>
      <point x="323.0" y="61.0"/>
    </contour>
  </outline>
</glyph>
<glyph name="brevecomb.case" format="2">
  <anchor x="0.0" y="700.0" name="_top"/>
  <anchor x="1.0" y="807.0" name="top"/>
  <outline>
    <contour>
      <point x="0.0" y="737.0" type="curve" smooth="yes"/>
      <point x="80.0" y="737.0"/>
      <point x="135.0" y="783.0"/>
      <point x="135.0" y="859.0" type="curve"/>
      <point x="72.0" y="859.0" type="line"/>
      <point x="74.0" y="823.0"/>
      <point x="53.0" y="792.0"/>
      <point x="0.0" y="792.0" type="curve" smooth="yes"/>
      <point x="-50.0" y="792.0"/>
      <point x="-74.0" y="823.0"/>
      <point x="-72.0" y="859.0" type="curve"/>
      <point x="-135.0" y="859.0" type="line"/>
      <point x="-135.0" y="783.0"/>
      <point x="-80.0" y="737.0"/>
    </contour>
  </outline>
</glyph>
<glyph name="breveinvertedcomb.case" format="2">
  <anchor x="0.0" y="700.0" name="_top"/>
  <anchor x="1.0" y="837.0" name="top"/>
  <outline>
    <contour>
      <point x="-135.0" y="743.0" type="curve"/>
      <point x="-72.0" y="743.0" type="line"/>
      <point x="-74.0" y="779.0"/>
      <point x="-53.0" y="810.0"/>
      <point x="0.0" y="810.0" type="curve" smooth="yes"/>
      <point x="50.0" y="810.0"/>
      <point x="74.0" y="779.0"/>
      <point x="72.0" y="743.0" type="curve"/>
      <point x="135.0" y="743.0" type="line"/>
      <point x="135.0" y="819.0"/>
      <point x="80.0" y="865.0"/>
      <point x="0.0" y="865.0" type="curve" smooth="yes"/>
      <point x="-80.0" y="865.0"/>
      <point x="-135.0" y="819.0"/>
    </contour>
  </outline>
</glyph>
<glyph name="f_f_i" format="2">
  <advance width="898.0"/>
  <anchor x="155.0" y="0.0" name="bottom_1"/>
  <anchor x="242.0" y="700.0" name="top_1"/>
  <anchor x="471.0" y="0.0" name="bottom_2"/>
  <anchor x="558.0" y="700.0" name="top_2"/>
  <anchor x="787.0" y="0.0" name="bottom_3"/>
  <anchor x="749.0" y="0.0" name="ogonek_3"/>
  <anchor x="787.0" y="490.0" name="top_3"/>
  <anchor x="369.0" y="0.0" name="caret_1"/>
  <anchor x="685.0" y="0.0" name="caret_2"/>
  <outline>
    <contour>
      <point x="17.0" y="418.0" type="line"/>
      <point x="817.0" y="418.0" type="line"/>
      <point x="827.0" y="490.0" type="line"/>
      <point x="17.0" y="490.0" type="line"/>
    </contour>
    <component base="f"/>
    <component base="f" xOffset="316.0"/>
    <component base="i" xOffset="675.0"/>
  </outline>
</glyph>
<glyph name="f_f_i.ss11" format="2">
  <advance width="886.0"/>
  <anchor x="787.0" y="0.0" name="bottom_1"/>
  <anchor x="749.0" y="0.0" name="ogonek_1"/>
  <anchor x="787.0" y="490.0" name="top_1"/>
  <anchor x="369.0" y="0.0" name="caret_1"/>
  <anchor x="685.0" y="0.0" name="caret_2"/>
  <outline>
    <contour>
      <point x="117.0" y="0.0" type="line"/>
      <point x="197.0" y="0.0" type="line"/>
      <point x="197.0" y="526.0" type="line" smooth="yes"/>
      <point x="197.0" y="588.0"/>
      <point x="234.0" y="639.0"/>
      <point x="315.0" y="639.0" type="curve" smooth="yes"/>
      <point x="391.0" y="639.0"/>
      <point x="432.0" y="588.0"/>
      <point x="432.0" y="526.0" type="curve" smooth="yes"/>
      <point x="432.0" y="0.0" type="line"/>
      <point x="512.0" y="0.0" type="line"/>
      <point x="512.0" y="526.0" type="line" smooth="yes"/>
      <point x="512.0" y="588.0"/>
      <point x="549.0" y="639.0"/>
      <point x="630.0" y="639.0" type="curve" smooth="yes"/>
      <point x="706.0" y="639.0"/>
      <point x="745.0" y="588.0"/>
      <point x="745.0" y="526.0" type="curve"/>
      <point x="734.0" y="546.0" type="line"/>
      <point x="830.0" y="546.0" type="line"/>
      <point x="825.0" y="530.0" type="line"/>
      <point x="825.0" y="626.0"/>
      <point x="755.0" y="713.0"/>
      <point x="630.0" y="713.0" type="curve" smooth="yes"/>
      <point x="551.0" y="713.0"/>
      <point x="498.0" y="680.0"/>
      <point x="467.0" y="614.0" type="curve"/>
      <point x="512.0" y="626.0" type="line"/>
      <point x="430.0" y="626.0" type="line"/>
      <point x="475.0" y="613.0" type="line"/>
      <point x="443.0" y="681.0"/>
      <point x="390.0" y="713.0"/>
      <point x="315.0" y="713.0" type="curve" smooth="yes"/>
      <point x="194.0" y="713.0"/>
      <point x="117.0" y="626.0"/>
      <point x="117.0" y="530.0" type="curve" smooth="yes"/>
    </contour>
    <contour>
      <point x="17.0" y="418.0" type="line"/>
      <point x="675.0" y="418.0" type="line"/>
      <point x="675.0" y="490.0" type="line"/>
      <point x="17.0" y="490.0" type="line"/>
    </contour>
    <component base="idotless" xOffset="675.0"/>
  </outline>
</glyph>
<glyph name="f_f_l.ss11" format="2">
  <advance width="899.0"/>
  <anchor x="369.0" y="0.0" name="caret_1"/>
  <anchor x="685.0" y="0.0" name="caret_2"/>
  <outline>
    <contour>
      <point x="117.0" y="0.0" type="line"/>
      <point x="197.0" y="0.0" type="line"/>
      <point x="197.0" y="546.0" type="line" smooth="yes"/>
      <point x="197.0" y="628.0"/>
      <point x="234.0" y="679.0"/>
      <point x="315.0" y="679.0" type="curve" smooth="yes"/>
      <point x="391.0" y="679.0"/>
      <point x="432.0" y="628.0"/>
      <point x="432.0" y="546.0" type="curve" smooth="yes"/>
      <point x="432.0" y="0.0" type="line"/>
      <point x="512.0" y="0.0" type="line"/>
      <point x="512.0" y="546.0" type="line" smooth="yes"/>
      <point x="512.0" y="628.0"/>
      <point x="549.0" y="679.0"/>
      <point x="630.0" y="679.0" type="curve" smooth="yes"/>
      <point x="706.0" y="679.0"/>
      <point x="747.0" y="628.0"/>
      <point x="747.0" y="546.0" type="curve" smooth="yes"/>
      <point x="747.0" y="0.0" type="line"/>
      <point x="827.0" y="0.0" type="line"/>
      <point x="827.0" y="546.0" type="line" smooth="yes"/>
      <point x="827.0" y="666.0"/>
      <point x="746.0" y="753.0"/>
      <point x="630.0" y="753.0" type="curve" smooth="yes"/>
      <point x="560.0" y="753.0"/>
      <point x="497.0" y="717.0"/>
      <point x="474.0" y="656.0" type="curve"/>
      <point x="468.0" y="656.0" type="line"/>
      <point x="444.0" y="718.0"/>
      <point x="381.0" y="753.0"/>
      <point x="315.0" y="753.0" type="curve" smooth="yes"/>
      <point x="194.0" y="753.0"/>
      <point x="117.0" y="666.0"/>
      <point x="117.0" y="550.0" type="curve" smooth="yes"/>
    </contour>
    <contour>
      <point x="17.0" y="418.0" type="line"/>
      <point x="675.0" y="418.0" type="line"/>
      <point x="675.0" y="490.0" type="line"/>
      <point x="17.0" y="490.0" type="line"/>
    </contour>
  </outline>
</glyph>
<glyph name="f_t" format="2">
  <advance width="745.0"/>
  <anchor x="155.0" y="0.0" name="bottom_1"/>
  <anchor x="242.0" y="700.0" name="top_1"/>
  <anchor x="537.0" y="331.0" name="bar_2"/>
  <anchor x="604.0" y="0.0" name="bottom_2"/>
  <anchor x="531.0" y="276.0" name="center_2"/>
  <anchor x="531.0" y="615.0" name="top_2"/>
  <anchor x="659.0" y="700.0" name="topright_2"/>
  <anchor x="392.0" y="0.0" name="caret_1"/>
  <outline>
    <contour>
      <point x="17.0" y="418.0" type="line"/>
      <point x="562.0" y="418.0" type="line"/>
      <point x="562.0" y="490.0" type="line"/>
      <point x="17.0" y="490.0" type="line"/>
    </contour>
    <component base="f"/>
    <component base="t" xOffset="356.0"/>
  </outline>
</glyph>
<glyph name="fl.ss11" format="2">
  <advance width="584.0"/>
  <anchor x="369.0" y="0.0" name="caret_1"/>
  <outline>
    <contour>
      <point x="117.0" y="0.0" type="line"/>
      <point x="197.0" y="0.0" type="line"/>
      <point x="197.0" y="526.0" type="line" smooth="yes"/>
      <point x="197.0" y="595.0"/>
      <point x="243.0" y="639.0"/>
      <point x="315.0" y="639.0" type="curve" smooth="yes"/>
      <point x="387.0" y="639.0"/>
      <point x="432.0" y="595.0"/>
      <point x="432.0" y="526.0" type="curve" smooth="yes"/>
      <point x="432.0" y="0.0" type="line"/>
      <point x="512.0" y="0.0" type="line"/>
      <point x="512.0" y="526.0" type="line" smooth="yes"/>
      <point x="512.0" y="641.0"/>
      <point x="436.0" y="713.0"/>
      <point x="315.0" y="713.0" type="curve" smooth="yes"/>
      <point x="202.0" y="713.0"/>
      <point x="117.0" y="635.0"/>
      <point x="117.0" y="530.0" type="curve" smooth="yes"/>
    </contour>
    <contour>
      <point x="17.0" y="418.0" type="line"/>
      <point x="370.0" y="418.0" type="line"/>
      <point x="370.0" y="490.0" type="line"/>
      <point x="17.0" y="490.0" type="line"/>
    </contour>
  </outline>
</glyph>
<glyph name="germandbls.ss10" format="2">
  <advance width="656.0"/>
  <outline>
    <contour>
      <point x="17.0" y="418.0" type="line"/>
      <point x="162.0" y="418.0" type="line"/>
      <point x="162.0" y="490.0" type="line"/>
      <point x="17.0" y="490.0" type="line"/>
    </contour>
    <component base="germandbls" xOffset="44.0"/>
  </outline>
</glyph>
<glyph name="gravecomb.case" format="2">
  <anchor x="0.0" y="700.0" name="_top"/>
  <anchor x="0.0" y="810.0" name="top"/>
  <outline>
    <contour>
      <point x="-25.0" y="740.0" type="line"/>
      <point x="27.0" y="740.0" type="line"/>
      <point x="-19.0" y="853.0" type="line"/>
      <point x="-114.0" y="853.0" type="line"/>
    </contour>
  </outline>
</glyph>
<glyph name="liraTurkish.tf" format="2">
  <advance width="596.0"/>
  <outline>
    <contour>
      <point x="58.0" y="293.0" type="line"/>
      <point x="520.0" y="388.0" type="line"/>
      <point x="520.0" y="465.0" type="line"/>
      <point x="58.0" y="370.0" type="line"/>
    </contour>
    <contour>
      <point x="58.0" y="420.0" type="line"/>
      <point x="520.0" y="515.0" type="line"/>
      <point x="520.0" y="592.0" type="line"/>
      <point x="58.0" y="497.0" type="line"/>
    </contour>
    <contour>
      <point x="149.0" y="30.0" type="line"/>
      <point x="251.0" y="30.0" type="line" smooth="yes"/>
      <point x="402.0" y="30.0"/>
      <point x="517.0" y="116.0"/>
      <point x="533.0" y="267.0" type="curve" smooth="yes"/>
      <point x="538.0" y="315.0" type="line"/>
      <point x="465.0" y="322.0" type="line"/>
      <point x="460.0" y="277.0" type="line" smooth="yes"/>
      <point x="447.0" y="158.0"/>
      <point x="370.0" y="106.0"/>
      <point x="252.0" y="106.0" type="curve" smooth="yes"/>
      <point x="231.0" y="106.0" type="line"/>
      <point x="231.0" y="670.0" type="line"/>
      <point x="149.0" y="670.0" type="line"/>
    </contour>
  </outline>
</glyph>
<glyph name="naira.tf" format="2">
  <advance width="596.0"/>
  <outline>
    <contour>
      <point x="82.0" y="30.0" type="line"/>
      <point x="163.0" y="30.0" type="line"/>
      <point x="163.0" y="398.0" type="line" smooth="yes"/>
      <point x="163.0" y="453.0"/>
      <point x="161.0" y="488.0"/>
      <point x="157.0" y="509.0" type="curve"/>
      <point x="160.0" y="509.0" type="line"/>
      <point x="164.0" y="498.0"/>
      <point x="184.0" y="481.0"/>
      <point x="201.0" y="452.0" type="curve" smooth="yes"/>
      <point x="444.0" y="30.0" type="line"/>
      <point x="514.0" y="30.0" type="line"/>
      <point x="514.0" y="670.0" type="line"/>
      <point x="433.0" y="670.0" type="line"/>
      <point x="433.0" y="309.0" type="line" smooth="yes"/>
      <point x="433.0" y="242.0"/>
      <point x="435.0" y="214.0"/>
      <point x="440.0" y="195.0" type="curve"/>
      <point x="436.0" y="195.0" type="line"/>
      <point x="433.0" y="206.0"/>
      <point x="419.0" y="233.0"/>
      <point x="404.0" y="258.0" type="curve" smooth="yes"/>
      <point x="156.0" y="670.0" type="line"/>
      <point x="82.0" y="670.0" type="line"/>
    </contour>
    <contour>
      <point x="0.0" y="324.0" type="line"/>
      <point x="596.0" y="324.0" type="line"/>
      <point x="596.0" y="396.0" type="line"/>
      <point x="0.0" y="396.0" type="line"/>
    </contour>
  </outline>
</glyph>
<glyph name="one.tf" format="2">
  <advance width="596.0"/>
  <outline>
    <contour>
      <point x="279.0" y="0.0" type="line"/>
      <point x="363.0" y="0.0" type="line"/>
      <point x="363.0" y="713.0" type="line"/>
      <point x="77.0" y="598.0" type="line"/>
      <point x="105.0" y="526.0" type="line"/>
      <point x="277.0" y="597.0" type="line"/>
      <point x="279.0" y="594.0" type="line"/>
    </contour>
    <contour>
      <point x="130.0" y="0.0" type="line"/>
      <point x="518.0" y="0.0" type="line"/>
      <point x="518.0" y="72.0" type="line"/>
      <point x="130.0" y="72.0" type="line"/>
    </contour>
  </outline>
</glyph>
<glyph name="rupeeIndian.tf" format="2">
  <advance width="596.0"/>
  <outline>
    <contour>
      <point x="353.0" y="30.0" type="line"/>
      <point x="454.0" y="30.0" type="line"/>
      <point x="250.0" y="312.0" type="line"/>
      <point x="246.0" y="278.0" type="line"/>
      <point x="351.0" y="281.0"/>
      <point x="454.0" y="347.0"/>
      <point x="454.0" y="473.0" type="curve" smooth="yes"/>
      <point x="454.0" y="605.0"/>
      <point x="376.0" y="670.0"/>
      <point x="249.0" y="670.0" type="curve" smooth="yes"/>
      <point x="32.0" y="670.0" type="line"/>
      <point x="32.0" y="594.0" type="line"/>
      <point x="237.0" y="594.0" type="line" smooth="yes"/>
      <point x="333.0" y="594.0"/>
      <point x="368.0" y="562.0"/>
      <point x="368.0" y="473.0" type="curve" smooth="yes"/>
      <point x="368.0" y="381.0"/>
      <point x="303.0" y="349.0"/>
      <point x="207.0" y="349.0" type="curve" smooth="yes"/>
      <point x="32.0" y="349.0" type="line"/>
      <point x="32.0" y="273.0" type="line"/>
      <point x="178.0" y="273.0" type="line"/>
    </contour>
    <contour>
      <point x="32.0" y="435.0" type="line"/>
      <point x="497.0" y="435.0" type="line"/>
      <point x="546.0" y="507.0" type="line"/>
      <point x="81.0" y="507.0" type="line"/>
    </contour>
    <contour>
      <point x="154.0" y="597.0" type="line"/>
      <point x="527.0" y="597.0" type="line"/>
      <point x="576.0" y="669.0" type="line"/>
      <point x="154.0" y="669.0" type="line"/>
    </contour>
  </outline>
</glyph>
<glyph name="six.numr" format="2">
  <advance width="319.0"/>
  <outline>
    <contour>
      <point x="163.0" y="355.0" type="curve" smooth="yes"/>
      <point x="120.0" y="355.0"/>
      <point x="87.0" y="387.0"/>
      <point x="87.0" y="433.0" type="curve" smooth="yes"/>
      <point x="87.0" y="478.0"/>
      <point x="121.0" y="507.0"/>
      <point x="166.0" y="507.0" type="curve" smooth="yes"/>
      <point x="203.0" y="507.0"/>
      <point x="237.0" y="475.0"/>
      <point x="237.0" y="432.0" type="curve" smooth="yes"/>
      <point x="237.0" y="382.0"/>
      <point x="198.0" y="355.0"/>
    </contour>
    <contour>
      <point x="163.0" y="307.0" type="curve" smooth="yes"/>
      <point x="242.0" y="307.0"/>
      <point x="291.0" y="365.0"/>
      <point x="291.0" y="433.0" type="curve" smooth="yes"/>
      <point x="291.0" y="527.0"/>
      <point x="206.0" y="571.0"/>
      <point x="137.0" y="543.0" type="curve"/>
      <point x="230.0" y="700.0" type="line"/>
      <point x="166.0" y="700.0" type="line"/>
      <point x="70.0" y="537.0" type="line" smooth="yes"/>
      <point x="55.0" y="512.0"/>
      <point x="32.0" y="470.0"/>
      <point x="32.0" y="432.0" type="curve" smooth="yes"/>
      <point x="32.0" y="363.0"/>
      <point x="80.0" y="307.0"/>
    </contour>
  </outline>
</glyph>
<glyph name="slashlongcomb.case" format="2">
  <anchor x="380.0" y="361.0" name="_center"/>
  <outline>
    <contour>
      <point x="29.0" y="-40.0" type="line"/>
      <point x="108.0" y="-40.0" type="line"/>
      <point x="720.0" y="748.0" type="line"/>
      <point x="641.0" y="748.0" type="line"/>
    </contour>
  </outline>
</glyph>
<glyph name="tittle" format="2">
  <advance width="223.0"/>
  <outline>
    <contour>
      <point x="112.0" y="613.0" type="curve" smooth="yes"/>
      <point x="142.0" y="613.0"/>
      <point x="164.0" y="636.0"/>
      <point x="164.0" y="665.0" type="curve" smooth="yes"/>
      <point x="164.0" y="693.0"/>
      <point x="142.0" y="716.0"/>
      <point x="112.0" y="716.0" type="curve" smooth="yes"/>
      <point x="81.0" y="716.0"/>
      <point x="59.0" y="693.0"/>
      <point x="59.0" y="665.0" type="curve" smooth="yes"/>
      <point x="59.0" y="636.0"/>
      <point x="81.0" y="613.0"/>
    </contour>
  </outline>
</glyph>
<glyph name="two.numr" format="2">
  <advance width="325.0"/>
  <outline>
    <contour>
      <point x="29.0" y="313.0" type="line"/>
      <point x="285.0" y="313.0" type="line"/>
      <point x="285.0" y="362.0" type="line"/>
      <point x="127.0" y="361.0" type="line"/>
      <point x="127.0" y="362.0" type="line"/>
      <point x="130.0" y="364.0"/>
      <point x="135.0" y="367.0"/>
      <point x="140.0" y="373.0" type="curve" smooth="yes"/>
      <point x="231.0" y="478.0" type="line" smooth="yes"/>
      <point x="259.0" y="510.0"/>
      <point x="281.0" y="547.0"/>
      <point x="281.0" y="590.0" type="curve" smooth="yes"/>
      <point x="281.0" y="636.0"/>
      <point x="245.0" y="706.0"/>
      <point x="156.0" y="706.0" type="curve" smooth="yes"/>
      <point x="93.0" y="706.0"/>
      <point x="29.0" y="667.0"/>
      <point x="29.0" y="568.0" type="curve"/>
      <point x="83.0" y="568.0" type="line"/>
      <point x="83.0" y="637.0"/>
      <point x="120.0" y="657.0"/>
      <point x="155.0" y="657.0" type="curve" smooth="yes"/>
      <point x="202.0" y="657.0"/>
      <point x="225.0" y="622.0"/>
      <point x="225.0" y="586.0" type="curve" smooth="yes"/>
      <point x="225.0" y="552.0"/>
      <point x="203.0" y="524.0"/>
      <point x="181.0" y="497.0" type="curve" smooth="yes"/>
      <point x="29.0" y="328.0" type="line"/>
    </contour>
  </outline>
</glyph>
<glyph name="zero.numr" format="2">
  <advance width="336.0"/>
  <outline>
    <contour>
      <point x="168.0" y="308.0" type="curve" smooth="yes"/>
      <point x="249.0" y="308.0"/>
      <point x="303.0" y="369.0"/>
      <point x="303.0" y="448.0" type="curve" smooth="yes"/>
      <point x="303.0" y="572.0" type="line" smooth="yes"/>
      <point x="303.0" y="638.0"/>
      <point x="257.0" y="706.0"/>
      <point x="168.0" y="706.0" type="curve" smooth="yes"/>
      <point x="95.0" y="706.0"/>
      <point x="33.0" y="654.0"/>
      <point x="33.0" y="570.0" type="curve" smooth="yes"/>
      <point x="33.0" y="444.0" type="line" smooth="yes"/>
      <point x="33.0" y="365.0"/>
      <point x="89.0" y="308.0"/>
    </contour>
    <contour>
      <point x="168.0" y="357.0" type="curve" smooth="yes"/>
      <point x="117.0" y="357.0"/>
      <point x="88.0" y="396.0"/>
      <point x="88.0" y="450.0" type="curve" smooth="yes"/>
      <point x="88.0" y="570.0" type="line" smooth="yes"/>
      <point x="88.0" y="621.0"/>
      <point x="117.0" y="657.0"/>
      <point x="168.0" y="657.0" type="curve" smooth="yes"/>
      <point x="218.0" y="657.0"/>
      <point x="248.0" y="618.0"/>
      <point x="248.0" y="568.0" type="curve" smooth="yes"/>
      <point x="248.0" y="448.0" type="line" smooth="yes"/>
      <point x="248.0" y="396.0"/>
      <point x="219.0" y="357.0"/>
    </contour>
  </outline>
</glyph>
<glyph name="zero.ss10" format="2">
  <advance width="614.0"/>
  <outline>
    <contour>
      <point x="307.0" y="-13.0" type="curve" smooth="yes"/>
      <point x="453.0" y="-13.0"/>
      <point x="559.0" y="110.0"/>
      <point x="559.0" y="348.0" type="curve" smooth="yes"/>
      <point x="559.0" y="582.0"/>
      <point x="461.0" y="711.0"/>
      <point x="307.0" y="711.0" type="curve" smooth="yes"/>
      <point x="154.0" y="711.0"/>
      <point x="55.0" y="585.0"/>
      <point x="55.0" y="348.0" type="curve" smooth="yes"/>
      <point x="55.0" y="109.0"/>
      <point x="161.0" y="-13.0"/>
    </contour>
    <contour>
      <point x="307.0" y="64.0" type="curve" smooth="yes"/>
      <point x="225.0" y="64.0"/>
      <point x="143.0" y="139.0"/>
      <point x="143.0" y="348.0" type="curve" smooth="yes"/>
      <point x="143.0" y="570.0"/>
      <point x="225.0" y="634.0"/>
      <point x="307.0" y="634.0" type="curve" smooth="yes"/>
      <point x="389.0" y="634.0"/>
      <point x="471.0" y="570.0"/>
      <point x="471.0" y="348.0" type="curve" smooth="yes"/>
      <point x="471.0" y="139.0"/>
      <point x="389.0" y="64.0"/>
    </contour>
  </outline>
</glyph>
